<svg width="29" height="29" viewBox="0 0 29 29" fill="none" xmlns="http://www.w3.org/2000/svg">
<path d="M3.46042 11.7616L1.55559 8.58688C1.25589 8.08738 1.44486 7.43846 1.96587 7.17795L6.78885 4.76646C6.92771 4.69703 7.08082 4.66089 7.23607 4.66089H10C10 5.66089 11 8.66089 14.5 8.66089C18 8.66089 19 5.66089 19 4.66089H21.7639C21.9192 4.66089 22.0723 4.69703 22.2111 4.76646L27.0341 7.17795C27.5551 7.43846 27.7441 8.08738 27.4444 8.58688L25.5396 11.7616C25.2458 12.2512 24.6025 12.3959 24.1274 12.0791L23.5547 11.6974C22.8901 11.2543 22 11.7307 22 12.5294V23.6609C22 24.2132 21.5523 24.6609 21 24.6609H8C7.44772 24.6609 7 24.2132 7 23.6609V12.5294C7 11.7307 6.10986 11.2543 5.4453 11.6974L4.87261 12.0791C4.39755 12.3959 3.75418 12.2512 3.46042 11.7616Z" fill="#94D8E7"/>
<path d="M10 4.66089H12C12 5.66089 13 6.66089 14.5 6.66089C16 6.66089 17 5.66089 17 4.66089H19C19 5.66089 18 8.66089 14.5 8.66089C10.9 8.66089 10 5.66089 10 4.66089Z" fill="#4DBED7"/>
<path d="M20 13.6609V10.6609H16V13.6609C16 13.9942 16.4 14.6609 18 14.6609C19.6 14.6609 20 13.9942 20 13.6609Z" fill="#4DBED7"/>
</svg>
