<svg width="18" height="18" viewBox="0 0 18 18" fill="none" xmlns="http://www.w3.org/2000/svg">
<path d="M9.94243 13.1792L9.4784 14.7062C9.33471 15.179 8.66529 15.179 8.5216 14.7062L8.05757 13.1792C7.86554 12.5473 7.28281 12.1154 6.62238 12.1154H4C3.72386 12.1154 3.5 11.8915 3.5 11.6154V5C3.5 4.72386 3.72386 4.5 4 4.5H14C14.2761 4.5 14.5 4.72386 14.5 5V11.6154C14.5 11.8915 14.2761 12.1154 14 12.1154H11.3776C10.7172 12.1154 10.1345 12.5473 9.94243 13.1792Z" stroke="#BAC4CD" stroke-linejoin="round"/>
<circle cx="6.5" cy="8.5" r="0.5" fill="#BAC4CD"/>
<circle cx="8.5" cy="8.5" r="0.5" fill="#BAC4CD"/>
<circle cx="10.5" cy="8.5" r="0.5" fill="#BAC4CD"/>
</svg>
