<svg width="19" height="18" viewBox="0 0 19 18" fill="none" xmlns="http://www.w3.org/2000/svg">
<path d="M8.58292 1.56522C8.77354 1.0366 9.52114 1.0366 9.71177 1.56522L11.2986 5.96572C11.382 6.19703 11.5981 6.35403 11.8439 6.36188L16.5193 6.51122C17.081 6.52916 17.312 7.24017 16.8682 7.58482L13.1734 10.4538C12.9792 10.6046 12.8967 10.8587 12.9651 11.0948L14.2679 15.5876C14.4244 16.1273 13.8196 16.5667 13.3547 16.2511L9.48434 13.6238C9.2809 13.4857 9.01379 13.4857 8.81035 13.6238L4.94003 16.2511C4.47509 16.5667 3.87027 16.1273 4.02677 15.5876L5.32954 11.0948C5.39802 10.8587 5.31548 10.6046 5.12127 10.4538L1.4265 7.58482C0.98266 7.24017 1.21368 6.52916 1.77534 6.51122L6.45082 6.36188C6.69658 6.35403 6.91268 6.19703 6.99609 5.96572L8.58292 1.56522Z" fill="#FFE033"/>
</svg>
