<svg width="18" height="18" viewBox="0 0 18 18" fill="none" xmlns="http://www.w3.org/2000/svg">
<path d="M14.9455 9.19313C15.1376 10.6088 14.8183 12.0466 14.0449 13.2479C13.2716 14.4491 12.095 15.335 10.7268 15.7462C9.35854 16.1573 7.88851 16.0668 6.58109 15.4908C5.27367 14.9148 4.21468 13.8912 3.5946 12.6042C2.97452 11.3171 2.83406 9.85097 3.19847 8.46956C3.56288 7.08815 4.40826 5.88211 5.58253 5.06838C6.75681 4.25464 8.18291 3.88662 9.60431 4.03051C11.0257 4.1744 12.3491 4.82076 13.3365 5.85333L12.4611 6.69036C11.6731 5.86622 10.6168 5.35033 9.48232 5.23549C8.34784 5.12064 7.20961 5.41437 6.27237 6.06385C5.33513 6.71333 4.6604 7.67593 4.36954 8.77849C4.07869 9.88105 4.1908 11.0512 4.68571 12.0785C5.18062 13.1058 6.02585 13.9227 7.06936 14.3824C8.11287 14.8422 9.28617 14.9144 10.3782 14.5863C11.4702 14.2581 12.4093 13.551 13.0266 12.5923C13.6438 11.6335 13.8987 10.4859 13.7454 9.356L14.9455 9.19313Z" fill="#BD76FF"/>
<line x1="10" y1="6.5" x2="14" y2="6.5" stroke="#BD76FF"/>
<line x1="13.5" y1="7" x2="13.5" y2="3" stroke="#BD76FF"/>
</svg>
