<svg width="32" height="32" viewBox="0 0 32 32" fill="none" xmlns="http://www.w3.org/2000/svg">
<path d="M7 8.65H21C21.1933 8.65 21.35 8.8067 21.35 9V15.5385C21.35 16.4789 20.9943 17.9334 19.9148 19.1444C18.8544 20.3339 17.0406 21.35 14 21.35C8.40351 21.35 6.65 17.3795 6.65 15.5385V9C6.65 8.8067 6.8067 8.65 7 8.65Z" stroke="#333333" stroke-width="1.3"/>
<path d="M6 25H23" stroke="#333333" stroke-width="1.3"/>
<path d="M25.3499 12.5C25.3499 14.6208 23.6134 16.35 21.459 16.35C21.3992 16.35 21.3594 16.3486 21.3338 16.3471V8.65027C21.3713 8.65001 21.4123 8.65 21.459 8.65C23.6134 8.65 25.3499 10.3792 25.3499 12.5Z" stroke="#333333" stroke-width="1.3"/>
</svg>
