<svg width="29" height="29" viewBox="0 0 29 29" fill="none" xmlns="http://www.w3.org/2000/svg">
<path d="M13.9 3.11089L10.7667 5.46089C10.5936 5.59071 10.383 5.66089 10.1667 5.66089H6.5C5.94772 5.66089 5.5 6.1086 5.5 6.66089V10.3276C5.5 10.5439 5.42982 10.7545 5.3 10.9276L2.95 14.0609C2.68333 14.4164 2.68333 14.9053 2.95 15.2609L5.3 18.3942C5.42982 18.5673 5.5 18.7779 5.5 18.9942V22.6609C5.5 23.2132 5.94772 23.6609 6.5 23.6609H10.1667C10.383 23.6609 10.5936 23.7311 10.7667 23.8609L13.9 26.2109C14.2556 26.4776 14.7444 26.4776 15.1 26.2109L18.2333 23.8609C18.4064 23.7311 18.617 23.6609 18.8333 23.6609H22.5C23.0523 23.6609 23.5 23.2132 23.5 22.6609V18.9942C23.5 18.7779 23.5702 18.5673 23.7 18.3942L26.05 15.2609C26.3167 14.9053 26.3167 14.4164 26.05 14.0609L23.7 10.9276C23.5702 10.7545 23.5 10.5439 23.5 10.3276V6.66089C23.5 6.1086 23.0523 5.66089 22.5 5.66089H18.8333C18.617 5.66089 18.4064 5.59071 18.2333 5.46089L15.1 3.11089C14.7444 2.84422 14.2556 2.84422 13.9 3.11089Z" fill="#69A3E1"/>
<path d="M18.5 11.6609L15 15.1609L11.5 18.6609" stroke="white"/>
<circle cx="17.5" cy="17.6609" r="1.5" stroke="white"/>
<circle cx="12.5" cy="12.6609" r="1.5" stroke="white"/>
</svg>
