<svg width="29" height="29" viewBox="0 0 29 29" fill="none" xmlns="http://www.w3.org/2000/svg">
<g clip-path="url(#clip0_1109_9052)">
<path fill-rule="evenodd" clip-rule="evenodd" d="M24.0619 8.55118C23.8726 8.30509 23.5798 8.16089 23.2693 8.16089H2.76172C2.20943 8.16089 1.76172 8.6086 1.76172 9.16089V20.1609C1.76172 20.7132 2.20943 21.1609 2.76172 21.1609H23.2693C23.5798 21.1609 23.8726 21.0167 24.0619 20.7706L28.2927 15.2706C28.5692 14.9111 28.5692 14.4106 28.2927 14.0512L24.0619 8.55118Z" fill="#FB835B"/>
<path d="M5.46619 14.5802H6.09176C6.71734 14.5802 6.93493 14.2574 6.93493 13.5816C6.93493 12.8252 6.68107 12.573 6.12803 12.573H5.46619V14.5802ZM3.76172 18.0499V11.2718H6.29122C7.91409 11.2718 8.70286 12.0586 8.70286 13.4808C8.70286 15.0139 7.86876 15.8007 6.33655 15.8007H5.46619V18.0499H3.76172Z" fill="#1C1C1C"/>
<path d="M9.752 18.0499V11.2718H11.4655V18.0499H9.752Z" fill="#1C1C1C"/>
<path d="M15.5204 18.1609C13.6708 18.1609 12.5738 17.0917 12.5738 14.792V14.56C12.5738 12.0888 13.9066 11.1609 15.5838 11.1609C16.3454 11.1609 16.8259 11.2618 17.1704 11.4534V12.8352C16.8078 12.6839 16.4542 12.5932 15.9284 12.5932C14.9492 12.5932 14.3961 13.1277 14.3961 14.4289V14.7315C14.3961 16.0226 14.786 16.7286 15.9102 16.7286C16.5267 16.7286 16.9256 16.5874 17.2339 16.4462V17.7978C16.8169 18.0096 16.3001 18.1609 15.5204 18.1609Z" fill="#1C1C1C"/>
<path d="M18.2947 18.0499V11.2718H19.9992V14.3886L21.9122 11.2718H23.6348L21.6402 14.4692L23.7617 18.0499H21.8578L19.9992 14.9332V18.0499H18.2947Z" fill="#1C1C1C"/>
</g>
<defs>
<clipPath id="clip0_1109_9052">
<rect width="28" height="28" fill="white" transform="translate(0.5 0.660889)"/>
</clipPath>
</defs>
</svg>
