<svg width="29" height="29" viewBox="0 0 29 29" fill="none" xmlns="http://www.w3.org/2000/svg">
<path d="M4.5 12.1609V9.16089C4.5 8.6086 4.94772 8.16089 5.5 8.16089H23.5C24.0523 8.16089 24.5 8.6086 24.5 9.16089V12.1609C24.5 12.7132 24.0523 13.1609 23.5 13.1609H5.5C4.94772 13.1609 4.5 12.7132 4.5 12.1609Z" fill="#FEABCD"/>
<path d="M5.5 25.1609V14.1609C5.5 13.6086 5.94772 13.1609 6.5 13.1609H22.5C23.0523 13.1609 23.5 13.6086 23.5 14.1609V25.1609C23.5 25.7132 23.0523 26.1609 22.5 26.1609H6.5C5.94772 26.1609 5.5 25.7132 5.5 25.1609Z" fill="#FD86B8"/>
<rect x="13.5" y="8.16089" width="2" height="18" fill="#E85658"/>
<path d="M20.5 8.16089H8.5V4.77892C8.5 4.03554 9.28231 3.55204 9.94721 3.8845L14.0528 5.93728C14.3343 6.07805 14.6657 6.07805 14.9472 5.93728L19.0528 3.8845C19.7177 3.55205 20.5 4.03554 20.5 4.77892V8.16089Z" fill="#E85658"/>
</svg>
