<svg width="32" height="32" viewBox="0 0 32 32" fill="none" xmlns="http://www.w3.org/2000/svg">
<path d="M6.65 25V14.4806C6.65 14.3743 6.69833 14.2737 6.78136 14.2073L15.7814 7.00732C15.9092 6.90506 16.0908 6.90506 16.2186 7.00732L25.2186 14.2073C25.3017 14.2737 25.35 14.3743 25.35 14.4806V25C25.35 25.1933 25.1933 25.35 25 25.35H19C18.8067 25.35 18.65 25.1933 18.65 25V20C18.65 19.0887 17.9113 18.35 17 18.35H15C14.0887 18.35 13.35 19.0887 13.35 20V25C13.35 25.1933 13.1933 25.35 13 25.35H7C6.8067 25.35 6.65 25.1933 6.65 25Z" stroke="#333333" stroke-width="1.3"/>
</svg>
