<svg width="17" height="16" viewBox="0 0 17 16" fill="none" xmlns="http://www.w3.org/2000/svg">
<path d="M7.58292 0.565224C7.77354 0.0366006 8.52114 0.0366008 8.71177 0.565224L10.2986 4.96572C10.382 5.19703 10.5981 5.35403 10.8439 5.36188L15.5193 5.51122C16.081 5.52916 16.312 6.24017 15.8682 6.58482L12.1734 9.45381C11.9792 9.60462 11.8967 9.85866 11.9651 10.0948L13.2679 14.5876C13.4244 15.1273 12.8196 15.5667 12.3547 15.2511L8.48434 12.6238C8.2809 12.4857 8.01379 12.4857 7.81035 12.6238L3.94003 15.2511C3.47509 15.5667 2.87027 15.1273 3.02677 14.5876L4.32954 10.0948C4.39802 9.85866 4.31548 9.60462 4.12127 9.45381L0.426504 6.58482C-0.0173404 6.24017 0.213681 5.52916 0.775337 5.51122L5.45082 5.36188C5.69658 5.35403 5.91268 5.19703 5.99609 4.96572L7.58292 0.565224Z" fill="#DDDDDD"/>
</svg>
