<svg width="29" height="29" viewBox="0 0 29 29" fill="none" xmlns="http://www.w3.org/2000/svg">
<path d="M22 2.9291C22 2.9291 14.8969 1.01264 14 7.42541L14.3327 8.51632C14.3327 8.51632 22.3327 10.079 21.9855 2.9291H22Z" fill="#61A716"/>
<path d="M15 7.66089C15 7.66089 16.5493 5.78379 19 4.66089" stroke="#4F8612" stroke-miterlimit="10"/>
<path d="M15 10.0013V6.6462C15 6.6462 12.8695 2.08666 7 4.23739C7 4.23739 8.10053 10.6609 13.8995 9.08369V10.6609H15V10.0157V10.0013Z" fill="#88C040"/>
<path d="M10 5.66089C10 5.66089 12.5468 6.0455 14 7.66089" stroke="#61A716" stroke-miterlimit="10"/>
<path d="M21.2039 13.437C21.2039 13.437 26.4235 17.8256 24.6217 22.9285C23.3061 26.6609 14.5972 26.6609 14.5972 26.6609C14.5972 26.6609 6.03137 26.6609 4.47265 22.9285C2.38481 17.9276 7.8904 13.437 7.8904 13.437C7.8904 13.437 12.0089 9.66089 14.6258 9.66089C17.2428 9.66089 21.2182 13.437 21.2182 13.437H21.2039Z" fill="#EAA535"/>
<path d="M22.3339 14.4372C19.989 12.6065 18.745 11.9127 17.4725 11.6912C16.0283 11.4403 14.4984 12.828 14.4984 12.828C14.4984 12.828 12.9685 11.4403 11.5386 11.6912C10.2804 11.9127 9.07928 12.577 6.82013 14.3191C5.33309 15.9577 2.98815 19.2794 4.47519 22.8816C6.03372 26.6609 14.5985 26.6609 14.5985 26.6609C14.5985 26.6609 23.3062 26.6609 24.6217 22.8816C25.8656 19.3089 23.7638 16.0758 22.3339 14.4224V14.4372Z" fill="#FFE177"/>
<path d="M12 17.6609C12.5523 17.6609 13 17.2132 13 16.6609C13 16.1086 12.5523 15.6609 12 15.6609C11.4477 15.6609 11 16.1086 11 16.6609C11 17.2132 11.4477 17.6609 12 17.6609Z" fill="#4D4426"/>
<path d="M17 17.6609C17.5523 17.6609 18 17.2132 18 16.6609C18 16.1086 17.5523 15.6609 17 15.6609C16.4477 15.6609 16 16.1086 16 16.6609C16 17.2132 16.4477 17.6609 17 17.6609Z" fill="#4D4426"/>
<path d="M16 18.6609C15.6111 19.2888 15.0833 19.6609 14.5 19.6609C13.9167 19.6609 13.3889 19.2888 13 18.6609" stroke="#4D4426" stroke-miterlimit="10"/>
</svg>
