<svg width="40" height="40" viewBox="0 0 40 40" fill="none" xmlns="http://www.w3.org/2000/svg">
<path d="M11.9071 27L12.9784 25.4503C13.2095 25.1161 13.3333 24.7193 13.3333 24.313V16.625C13.3333 16.0406 13.6555 14.6037 14.6736 13.3265C15.6504 12.1011 17.284 11 20 11C22.7365 11 24.3674 12.0507 25.3335 13.2347C26.3373 14.4649 26.6667 15.8942 26.6667 16.625V24.313C26.6667 24.7193 26.7905 25.1161 27.0215 25.4503L27.8441 24.8817L27.0216 25.4503L28.0929 27H11.9071Z" stroke="white" stroke-width="2" stroke-linejoin="round"/>
<path d="M23 27C23 28 22.4 30 20 30C17.6 30 17 28 17 27" stroke="white" stroke-width="2" stroke-linejoin="round"/>
</svg>
