<svg width="41" height="40" viewBox="0 0 41 40" fill="none" xmlns="http://www.w3.org/2000/svg">
<path d="M12.0194 27L13.0908 25.4503C13.3218 25.1161 13.4456 24.7193 13.4456 24.313V16.625C13.4456 16.0406 13.7678 14.6037 14.7859 13.3265C15.7627 12.1011 17.3963 11 20.1123 11C22.8489 11 24.4797 12.0507 25.4458 13.2347C26.4496 14.4649 26.779 15.8942 26.779 16.625V24.313C26.779 24.7193 26.9028 25.1161 27.1339 25.4503L27.9564 24.8817L27.1339 25.4503L28.2052 27H12.0194Z" stroke="#222222" stroke-width="2" stroke-linejoin="round"/>
<path d="M23.1123 27C23.1123 28 22.5123 30 20.1123 30C17.7123 30 17.1123 28 17.1123 27" stroke="#222222" stroke-width="2" stroke-linejoin="round"/>
</svg>
