<svg width="29" height="29" viewBox="0 0 29 29" fill="none" xmlns="http://www.w3.org/2000/svg">
<path d="M5.5 9.16089C5.5 8.6086 5.94772 8.16089 6.5 8.16089H9.5C10.0523 8.16089 10.5 8.6086 10.5 9.16089V17.1609H5.5V9.16089Z" fill="#D7ADFF"/>
<path d="M11.5 5.16089C11.5 4.6086 11.9477 4.16089 12.5 4.16089H15.5C16.0523 4.16089 16.5 4.6086 16.5 5.16089V17.1609H11.5V5.16089Z" fill="#D7ADFF"/>
<path d="M17.5 7.16089C17.5 6.6086 17.9477 6.16089 18.5 6.16089H21.5C22.0523 6.16089 22.5 6.6086 22.5 7.16089V17.1609H17.5V7.16089Z" fill="#D7ADFF"/>
<path d="M5.5 25.1609V19.1609H6.80076V24.2075H9.38395V25.1609H5.5Z" fill="#754D99"/>
<path d="M10.4876 25.1609V19.1609H11.7975V25.1609H10.4876Z" fill="#754D99"/>
<path d="M14.9582 25.1609L12.7597 19.1609H14.0971L15.6727 23.639H15.7002L17.2574 19.1609H18.4666L16.2773 25.1609H14.9582Z" fill="#754D99"/>
<path d="M19.4054 25.1609V19.1609H23.4359V20.0967H20.7061V21.6186H23.4359V22.5457H20.7061V24.2075H23.5V25.1609H19.4054Z" fill="#754D99"/>
</svg>
