<svg width="29" height="29" viewBox="0 0 29 29" fill="none" xmlns="http://www.w3.org/2000/svg">
<path d="M4.5 12.5602V11.8264L5.58361 10.69C6.43957 9.79512 7.18625 8.98975 7.18625 8.26492C7.18625 7.54008 6.76738 7.29847 5.99338 7.29847C5.60182 7.29847 5.08278 7.48639 4.73675 7.66536L4.57285 6.76156C5.00993 6.51995 5.64735 6.32308 6.37582 6.32308C7.81456 6.32308 8.52483 6.95843 8.52483 8.08594C8.52483 9.19556 7.44122 10.2873 6.8038 10.9405L6.15728 11.5848H8.54304V12.5602H4.5Z" fill="#30B2CF"/>
<path d="M16.348 13.634H15.2098V9.5893H14.5177V13.2672H13.4068V5.78617H14.5177V8.6497H15.2098V5.66089H16.348V13.634ZM12.8696 6.59154C12.9151 8.98975 11.9226 10.8063 9.91014 12.0054L9.19077 11.1195C10.7843 10.2246 11.5219 8.9808 11.6858 7.52219H9.67339V6.59154H12.8696Z" fill="#30B2CF"/>
<path d="M24.5 13.6609H18.7177V11.7817H23.1705V11.4506H18.745V10.6184H24.3816V12.5244H19.947V12.8197H24.5V13.6609ZM18.0075 7.14635C18.0075 6.39467 18.8725 5.85776 20.0381 5.85776C21.1945 5.85776 22.0778 6.39467 22.0778 7.14635C22.0778 7.89803 21.1945 8.42599 20.0381 8.42599C18.8725 8.42599 18.0075 7.89803 18.0075 7.14635ZM21.7409 10.1978V9.44612H23.1705V5.66089H24.3725V10.3589H23.1705V10.1978H21.7409ZM20.5389 10.3678H19.3278V9.44612C18.5902 9.48192 17.9984 9.48192 17.5066 9.48192L17.3791 8.57811C18.3444 8.57811 19.1366 8.57811 20.0563 8.54232C21.1763 8.50653 21.8229 8.42599 22.6333 8.3365L22.7061 9.18662C22.005 9.26715 21.2856 9.33874 20.5389 9.38348V10.3678ZM19.1457 7.1553C19.1457 7.44165 19.5464 7.62957 20.0381 7.62957C20.5389 7.62957 20.9396 7.44165 20.9396 7.1553C20.9396 6.85999 20.5389 6.66313 20.0381 6.66313C19.5464 6.66313 19.1457 6.85999 19.1457 7.1553Z" fill="#30B2CF"/>
<path d="M13.7388 17.6609V21.0881H8.41407V17.6609H13.7388ZM11.6266 25.6609H10.4641V22.9097H7.5V21.9426H14.644V22.9097H11.6266V25.6609ZM12.5673 20.1116V18.6374H9.59438V20.1116H12.5673Z" fill="#393D41"/>
<path d="M21.8167 22.4215H20.734V23.6421H22.5V24.6186H15.356V23.6421H17.122V22.4215H16.2523V19.567H20.4411V18.7595H16.2435V17.7642H21.6125V20.5623H17.4238V21.4355H21.8167V22.4215ZM18.258 22.4215V23.6421H19.6158V22.4215H18.258Z" fill="#393D41"/>
</svg>
