<svg width="29" height="29" viewBox="0 0 29 29" fill="none" xmlns="http://www.w3.org/2000/svg">
<circle cx="14.5" cy="12.6609" r="10" fill="#6AB0FA"/>
<ellipse cx="14.5" cy="16.1609" rx="7" ry="5.5" fill="#80BDFF"/>
<path d="M17.5 8.66089L18.3697 10.7911L20.5 11.6609L18.3697 12.5306L17.5 14.6609L16.6303 12.5306L14.5 11.6609L16.6303 10.7911L17.5 8.66089Z" fill="white"/>
<path d="M11.5 6.66089L12.0798 8.08106L13.5 8.66089L12.0798 9.24072L11.5 10.6609L10.9202 9.24072L9.5 8.66089L10.9202 8.08106L11.5 6.66089Z" fill="#D2E7FD"/>
<path d="M8.39689 21.3259C8.53865 20.9272 8.91598 20.6609 9.33911 20.6609H19.6609C20.084 20.6609 20.4614 20.9272 20.6031 21.3259L22.0253 25.3259C22.2568 25.9769 21.7741 26.6609 21.0831 26.6609H7.91688C7.22595 26.6609 6.7432 25.9769 6.97467 25.3259L8.39689 21.3259Z" fill="#565E67"/>
</svg>
