<svg width="27" height="27" viewBox="0 0 27 27" fill="none" xmlns="http://www.w3.org/2000/svg">
<g id="icn_save_activate">
<path id="Vector 15" d="M4.96697 15.4377L12.8464 22.6752C13.0768 22.8868 13.192 22.9926 13.3227 23.0327C13.4382 23.0682 13.5617 23.0682 13.6773 23.0327C13.808 22.9926 13.9232 22.8868 14.1536 22.6752L19.7845 17.5031L22.033 15.4377C24.3076 13.3485 24.5824 9.85721 22.6626 7.43786L22.3786 7.07988C20.1159 4.22838 15.6526 4.71381 14.0558 7.98505C13.8299 8.44798 13.1701 8.44798 12.9442 7.98505C11.3474 4.71381 6.88406 4.22838 4.62141 7.07988L4.33736 7.43785C2.41761 9.85721 2.69238 13.3485 4.96697 15.4377Z" fill="#FA622F" stroke="#FA622F" stroke-width="2"/>
</g>
</svg>
