<svg width="29" height="29" viewBox="0 0 29 29" fill="none" xmlns="http://www.w3.org/2000/svg">
<path d="M12 8.16089L23 5.16089V22.1609L12 18.1609V8.16089Z" fill="#D7ADFF"/>
<path d="M9 18.1609H10.3333L11 21.1609H9.66667L9 18.1609Z" fill="#754D99"/>
<circle cx="4.5" cy="13.6609" r="3.5" fill="#754D99"/>
<circle cx="26" cy="13.1609" r="2" fill="#754D99"/>
<path d="M4 9.16089C4 8.6086 4.44772 8.16089 5 8.16089H12V18.1609H5C4.44772 18.1609 4 17.7132 4 17.1609V9.16089Z" fill="#C485FF"/>
<rect x="22" y="4.16089" width="4" height="19" rx="1" fill="#B15EFF"/>
<path d="M5 18.1609H9L10.6358 23.8862C10.8183 24.525 10.3386 25.1609 9.67427 25.1609H7.7543C7.30782 25.1609 6.91544 24.8649 6.79278 24.4356L5 18.1609Z" fill="#B15EFF"/>
</svg>
